<svg width="27" height="27" viewBox="0 0 27 27" fill="none" xmlns="http://www.w3.org/2000/svg">
  <path fill-rule="evenodd" clip-rule="evenodd" d="M18.3882 20.9551C14.7088 24.2587 9.65148 26.5096 4.14251 26.5096H0V22.1983H4.14251C8.48938 22.1983 12.552 20.413 15.5284 17.7405C18.5286 15.0468 20.5219 10.8063 20.5219 7.69325H24.8134C24.8134 12.3402 22.044 17.6727 18.3882 20.9551Z" fill="#FF13B8"/>
  <path d="M25.3202 26.4827H20.5137V7.68518H25.3202V26.4827Z" fill="#020106"/>
  <path d="M25.8751 2.87622C25.8751 4.46472 24.5931 5.75245 23.0118 5.75245C21.4304 5.75245 20.1485 4.46472 20.1485 2.87622C20.1485 1.28773 21.4304 0 23.0118 0C24.5931 0 25.8751 1.28773 25.8751 2.87622Z" fill="#FF13B8"/>
</svg>
